<svg width="102" height="26" viewBox="0 0 102 26" fill="none" xmlns="http://www.w3.org/2000/svg">
<path d="M12.1932 25.0441C10.6033 25.0441 9.38886 24.9392 8.54984 24.7292C7.71082 24.5193 7.02219 24.1693 6.48395 23.6794C5.94571 23.1894 5.57766 22.5645 5.3798 21.8046C5.18193 21.0447 5.08298 20.1249 5.08298 19.045V6.43958C5.08298 5.35973 5.18193 4.4399 5.3798 3.67998C5.57766 2.92007 5.94571 2.29514 6.48395 1.8052C7.02219 1.31526 7.71082 0.965306 8.54984 0.755345C9.38886 0.545383 10.6033 0.439575 12.1932 0.439575H13.1127C14.7026 0.439575 15.917 0.545383 16.756 0.755345C17.5951 0.965306 18.2837 1.31526 18.8219 1.8052C19.3602 2.29514 19.7282 2.92007 19.9261 3.67998C20.1239 4.4399 20.223 5.35973 20.223 6.43958V19.045C20.223 20.1249 20.1239 21.0447 19.9261 21.8046C19.7282 22.5645 19.3602 23.1894 18.8219 23.6794C18.2837 24.1693 17.5951 24.5193 16.756 24.7292C15.917 24.9392 14.7026 25.0441 13.1127 25.0441H12.1932ZM12.6582 21.9642C13.6276 21.9642 14.3373 21.6142 14.7871 20.9143C15.237 20.2144 15.4619 19.2345 15.4619 17.9747V7.50988C15.4619 6.25001 15.237 5.27011 14.7871 4.57018C14.3373 3.87025 13.6276 3.51953 12.6582 3.51953C11.6888 3.51953 10.979 3.87025 10.5292 4.57018C10.0794 5.27011 9.85449 6.25001 9.85449 7.50988V17.9747C9.85449 19.2345 10.0794 20.2144 10.5292 20.9143C10.979 21.6142 11.6888 21.9642 12.6582 21.9642Z" fill="#8B5CF6"/>
<path d="M37.3697 25.0441C34.7801 25.0441 32.7205 24.4991 31.1908 23.4092C29.6611 22.3193 28.6917 20.7644 28.2823 18.7446L32.2215 17.7747C32.3916 18.7346 32.8913 19.4945 33.7203 20.0544C34.5494 20.6143 35.6386 20.8943 36.988 20.8943C38.1673 20.8943 39.0318 20.6743 39.5815 20.2344C40.1312 19.7944 40.4061 19.2145 40.4061 18.4946C40.4061 18.0046 40.2461 17.5847 39.9262 17.2347C39.6062 16.8847 39.1413 16.5948 38.5315 16.3648C37.9217 16.1348 37.122 15.9348 36.1323 15.7649L34.1877 15.4249C33.0234 15.2249 32.0191 14.935 31.1751 14.555C30.3311 14.175 29.652 13.6801 29.1378 13.0702C28.6236 12.4602 28.3664 11.7253 28.3664 10.8654C28.3664 9.68549 28.8213 8.69562 29.731 7.8957C30.6406 7.09579 31.9152 6.69585 33.5546 6.69585C35.0843 6.69585 36.339 7.00081 37.3185 7.61074C38.298 8.22067 38.9625 9.07058 39.3169 10.1604L35.4127 11.4102C35.2276 10.6653 34.8277 10.1554 34.2129 9.88048C33.5982 9.60555 32.8435 9.46808 31.9489 9.46808C31.9489 9.46808 35.143 9.46808 34.918 9.46808C34.0083 9.46808 33.3438 9.65806 32.9242 10.038C32.5046 10.418 32.2947 10.9129 32.2947 11.5228C32.2947 11.9328 32.4196 12.2827 32.6695 12.5727C32.9194 12.8627 33.2942 13.1126 33.7939 13.3226C34.2937 13.5326 34.9384 13.7275 35.7281 13.9075L37.8427 14.3174C39.007 14.5324 40.0114 14.8324 40.8554 15.2173C41.6994 15.6022 42.3688 16.1121 42.8635 16.747C43.3582 17.3819 43.6056 18.1618 43.6056 19.0866C43.6056 20.3465 43.1208 21.4314 42.1514 22.3412C41.182 23.251 39.7825 23.7059 37.953 23.7059C37.983 23.7059 37.4296 23.7059 37.3697 25.0441Z" fill="#8B5CF6"/>
<path d="M51.1915 25.0441C49.6016 25.0441 48.3872 24.9392 47.5481 24.7292C46.7091 24.5193 46.0205 24.1693 45.4823 23.6794C44.944 23.1894 44.576 22.5645 44.3781 21.8046C44.1803 21.0447 44.0813 20.1249 44.0813 19.045V6.43958C44.0813 5.35973 44.1803 4.4399 44.3781 3.67998C44.576 2.92007 44.944 2.29514 45.4823 1.8052C46.0205 1.31526 46.7091 0.965306 47.5481 0.755345C48.3872 0.545383 49.6016 0.439575 51.1915 0.439575H52.1111C53.701 0.439575 54.9154 0.545383 55.7544 0.755345C56.5935 0.965306 57.2821 1.31526 57.8203 1.8052C58.3585 2.29514 58.7266 2.92007 58.9245 3.67998C59.1223 4.4399 59.2214 5.35973 59.2214 6.43958V10.2294H51.6866V7.50988C51.6866 6.25001 51.4617 5.27011 51.0119 4.57018C50.562 3.87025 49.8523 3.51953 48.8829 3.51953C47.9135 3.51953 47.2037 3.87025 46.7539 4.57018C46.3041 5.27011 46.0792 6.25001 46.0792 7.50988V18.1247C46.0792 19.3845 46.3041 20.3644 46.7539 21.0643C47.2037 21.7642 47.9135 22.1142 48.8829 22.1142C49.8523 22.1142 50.562 21.7642 51.0119 21.0643C51.4617 20.3644 51.6866 19.3845 51.6866 18.1247V15.105H59.2214V19.045C59.2214 20.1249 59.1223 21.0447 58.9245 21.8046C58.7266 22.5645 58.3585 23.1894 57.8203 23.6794C57.2821 24.1693 56.5935 24.5193 55.7544 24.7292C54.9154 24.9392 53.701 25.0441 52.1111 25.0441H51.1915Z" fill="#8B5CF6"/>
<path d="M72.2988 25.0441V0.919434H76.7135V25.0441H72.2988Z" fill="#8B5CF6"/>
<path d="M96.9366 25.0441C95.3467 25.0441 94.1323 24.9392 93.2933 24.7292C92.4543 24.5193 91.7656 24.1693 91.2274 23.6794C90.6892 23.1894 90.3211 22.5645 90.1232 21.8046C89.9254 21.0447 89.8264 20.1249 89.8264 19.045V15.105H97.3612V18.1247C97.3612 19.3845 97.1363 20.3644 96.6865 21.0643C96.2366 21.7642 95.5269 22.1142 94.5575 22.1142C93.5881 22.1142 92.8784 21.7642 92.4286 21.0643C91.9787 20.3644 91.7538 19.3845 91.7538 18.1247V7.50988C91.7538 6.25001 91.9787 5.27011 92.4286 4.57018C92.8784 3.87025 93.5881 3.51953 94.5575 3.51953C95.5269 3.51953 96.2366 3.87025 96.6865 4.57018C97.1363 5.27011 97.3612 6.25001 97.3612 7.50988V10.2294H89.8264V6.43958C89.8264 5.35973 89.9254 4.4399 90.1232 3.67998C90.3211 2.92007 90.6892 2.29514 91.2274 1.8052C91.7656 1.31526 92.4543 0.965306 93.2933 0.755345C94.1323 0.545383 95.3467 0.439575 96.9366 0.439575H97.8562C99.446 0.439575 100.661 0.545383 101.5 0.755345C102.339 0.965306 103.028 1.31526 103.566 1.8052C104.104 2.29514 104.472 2.92007 104.67 3.67998C104.868 4.4399 104.967 5.35973 104.967 6.43958V19.045C104.967 20.1249 104.868 21.0447 104.67 21.8046C104.472 22.5645 104.104 23.1894 103.566 23.6794C103.028 24.1693 102.339 24.5193 101.5 24.7292C100.661 24.9392 99.446 25.0441 97.8562 25.0441H96.9366Z" fill="#8B5CF6"/>
</svg>
